<svg width="40" height="40" viewBox="0 0 40 40" fill="none" xmlns="http://www.w3.org/2000/svg">
<g filter="url(#filter0_d_6_49)">
<path d="M12.1667 17.25V20.125M15.8333 19.1667V20.125M22.25 11.5V12.4583C22.25 14.5754 20.6083 16.2917 18.5833 16.2917V20.125H9.41667V16.2917C7.39162 16.2917 5.75 14.5754 5.75 12.4583V11.5C5.75 6.73655 9.44365 2.875 14 2.875C18.5564 2.875 22.25 6.73655 22.25 11.5ZM12.1667 10.0625C12.1667 11.1211 11.3459 11.9792 10.3333 11.9792C9.32081 11.9792 8.5 11.1211 8.5 10.0625C8.5 9.00395 9.32081 8.14583 10.3333 8.14583C11.3459 8.14583 12.1667 9.00395 12.1667 10.0625ZM19.5 10.0625C19.5 11.1211 18.6792 11.9792 17.6667 11.9792C16.6541 11.9792 15.8333 11.1211 15.8333 10.0625C15.8333 9.00395 16.6541 8.14583 17.6667 8.14583C18.6792 8.14583 19.5 9.00395 19.5 10.0625Z" stroke="white" stroke-width="2" stroke-linecap="round" stroke-linejoin="round"/>
</g>
<path d="M26.1935 15C25.3384 15 24.6452 15.7069 24.6452 16.579C24.6452 17.451 25.3384 18.1579 26.1935 18.1579V15ZM34.4516 18.1579C35.3067 18.1579 36 17.451 36 16.579C36 15.7069 35.3067 15 34.4516 15V18.1579ZM36 16.579C36 15.7069 35.3067 15 34.4516 15C33.5965 15 32.9032 15.7069 32.9032 16.579H36ZM32.9032 25C32.9032 25.872 33.5965 26.579 34.4516 26.579C35.3067 26.579 36 25.872 36 25H32.9032ZM35.5464 17.6954C36.1511 17.0788 36.1511 16.0791 35.5464 15.4625C34.9417 14.8459 33.9615 14.8459 33.3568 15.4625L35.5464 17.6954ZM20 31.3158L18.9052 32.4323C19.5099 33.0489 20.4901 33.0489 21.0948 32.4323L20 31.3158ZM13.8064 25L14.9013 23.8836C14.2966 23.267 13.3162 23.267 12.7116 23.8836L13.8064 25ZM4.45351 32.3047C3.84883 32.9213 3.84883 33.9209 4.45351 34.5375C5.05818 35.1542 6.03858 35.1542 6.64326 34.5375L4.45351 32.3047ZM26.1935 18.1579H34.4516V15H26.1935V18.1579ZM32.9032 16.579V25H36V16.579H32.9032ZM33.3568 15.4625L18.9052 30.1994L21.0948 32.4323L35.5464 17.6954L33.3568 15.4625ZM21.0948 30.1994L14.9013 23.8836L12.7116 26.1165L18.9052 32.4323L21.0948 30.1994ZM12.7116 23.8836L4.45351 32.3047L6.64326 34.5375L14.9013 26.1165L12.7116 23.8836Z" fill="white"/>
<defs>
<filter id="filter0_d_6_49" x="-1" y="0" width="30" height="31" filterUnits="userSpaceOnUse" color-interpolation-filters="sRGB">
<feFlood flood-opacity="0" result="BackgroundImageFix"/>
<feColorMatrix in="SourceAlpha" type="matrix" values="0 0 0 0 0 0 0 0 0 0 0 0 0 0 0 0 0 0 127 0" result="hardAlpha"/>
<feOffset dy="4"/>
<feGaussianBlur stdDeviation="2"/>
<feComposite in2="hardAlpha" operator="out"/>
<feColorMatrix type="matrix" values="0 0 0 0 0 0 0 0 0 0 0 0 0 0 0 0 0 0 0.25 0"/>
<feBlend mode="normal" in2="BackgroundImageFix" result="effect1_dropShadow_6_49"/>
<feBlend mode="normal" in="SourceGraphic" in2="effect1_dropShadow_6_49" result="shape"/>
</filter>
</defs>
</svg>
